<svg width="55" height="55" viewBox="0 0 55 55" fill="none" xmlns="http://www.w3.org/2000/svg">
<g clip-path="url(#clip0_153_5306)">
<path d="M30.2005 13.2139L49.9868 47.4835C50.2885 48.006 50.4473 48.5988 50.4473 49.2022C50.4473 49.8056 50.2885 50.3983 49.9868 50.9209C49.6851 51.4435 49.2512 51.8774 48.7286 52.1791C48.2061 52.4808 47.6133 52.6397 47.0099 52.6397H7.43741C6.83401 52.6397 6.24125 52.4808 5.71869 52.1791C5.19614 51.8774 4.76221 51.4435 4.46052 50.9209C4.15882 50.3983 4 49.8056 4 49.2022C4 48.5988 4.15884 48.006 4.46054 47.4835L24.2468 13.2139C25.5691 10.9222 28.876 10.9222 30.2005 13.2139ZM27.2237 17.2243L9.422 48.0564H45.0253L27.2237 17.2243ZM27.2237 40.3747C27.8315 40.3747 28.4143 40.6161 28.8441 41.0459C29.2739 41.4757 29.5153 42.0586 29.5153 42.6664C29.5153 43.2742 29.2739 43.8571 28.8441 44.2868C28.4143 44.7166 27.8315 44.958 27.2237 44.958C26.6159 44.958 26.033 44.7166 25.6032 44.2868C25.1734 43.8571 24.932 43.2742 24.932 42.6664C24.932 42.0586 25.1734 41.4757 25.6032 41.0459C26.033 40.6161 26.6159 40.3747 27.2237 40.3747ZM27.2237 24.333C27.8315 24.333 28.4143 24.5745 28.8441 25.0042C29.2739 25.434 29.5153 26.0169 29.5153 26.6247V35.7914C29.5153 36.3992 29.2739 36.982 28.8441 37.4118C28.4143 37.8416 27.8315 38.083 27.2237 38.083C26.6159 38.083 26.033 37.8416 25.6032 37.4118C25.1734 36.982 24.932 36.3992 24.932 35.7914V26.6247C24.932 26.0169 25.1734 25.434 25.6032 25.0042C26.033 24.5745 26.6159 24.333 27.2237 24.333Z" fill="#4126A8"/>
</g>
<defs>
<clipPath id="clip0_153_5306">
<rect width="55" height="55" fill="white"/>
</clipPath>
</defs>
</svg>
