<svg width="20" height="20" viewBox="0 0 20 20" fill="none" xmlns="http://www.w3.org/2000/svg">
<path d="M3.84667 15.8337C3.46278 15.8337 3.1425 15.7053 2.88583 15.4487C2.62917 15.192 2.50056 14.8714 2.5 14.487V5.51366C2.5 5.12977 2.62861 4.80949 2.88583 4.55283C3.14306 4.29616 3.46306 4.16755 3.84583 4.16699H16.1542C16.5375 4.16699 16.8575 4.2956 17.1142 4.55283C17.3708 4.81005 17.4994 5.13033 17.5 5.51366V14.4878C17.5 14.8712 17.3714 15.1914 17.1142 15.4487C16.8569 15.7059 16.5369 15.8342 16.1542 15.8337H3.84667ZM16.6667 5.73783L10.3733 9.85783C10.3144 9.88838 10.255 9.91421 10.195 9.93533C10.1344 9.95588 10.0694 9.96616 10 9.96616C9.93056 9.96616 9.86556 9.95588 9.805 9.93533C9.74444 9.91477 9.685 9.88894 9.62667 9.85783L3.33333 5.73699V14.487C3.33333 14.637 3.38139 14.76 3.4775 14.8562C3.57361 14.9523 3.69667 15.0003 3.84667 15.0003H16.1542C16.3036 15.0003 16.4264 14.9523 16.5225 14.8562C16.6186 14.76 16.6667 14.637 16.6667 14.487V5.73783ZM10 9.16699L16.41 5.00033H3.59L10 9.16699ZM3.33333 5.91366V5.23783V5.26616V5.00033V5.26699V5.22366V5.91366Z" fill="#4126A8"/>
</svg>
