<svg width="18" height="18" viewBox="0 0 18 18" fill="none" xmlns="http://www.w3.org/2000/svg">
<path d="M0.5 11.9312C0.5 9.62184 0.5 8.46714 1.21744 7.74969C1.93488 7.03223 3.08959 7.03223 5.399 7.03223H11.931C14.2404 7.03223 15.3951 7.03223 16.1125 7.74969C16.83 8.46714 16.83 9.62184 16.83 11.9312C16.83 14.2406 16.83 15.3953 16.1125 16.1128C15.3951 16.8302 14.2404 16.8302 11.931 16.8302H5.399C3.08959 16.8302 1.93488 16.8302 1.21744 16.1128C0.5 15.3953 0.5 14.2406 0.5 11.9312Z" stroke="#4126A8"/>
<path d="M3.7666 7.032V5.399C3.7666 2.69336 5.95996 0.5 8.6656 0.5C11.3712 0.5 13.5646 2.69336 13.5646 5.399V7.032" stroke="#4126A8" stroke-linecap="round"/>
<path d="M5.39941 11.9316H5.40676M8.65807 11.9316H8.66541M11.9241 11.9316H11.9314" stroke="#4126A8" stroke-linecap="round" stroke-linejoin="round"/>
</svg>
