<svg width="16" height="16" viewBox="0 0 16 16" fill="none" xmlns="http://www.w3.org/2000/svg">
<path d="M14.3633 7.3635C14.566 7.6475 14.6673 7.79016 14.6673 8.00016C14.6673 8.21083 14.566 8.35283 14.3633 8.63683C13.4527 9.91416 11.1267 12.6668 8.00065 12.6668C4.87398 12.6668 2.54865 9.9135 1.63798 8.63683C1.43532 8.35283 1.33398 8.21016 1.33398 8.00016C1.33398 7.7895 1.43532 7.6475 1.63798 7.3635C2.54865 6.08616 4.87465 3.3335 8.00065 3.3335C11.1273 3.3335 13.4527 6.08683 14.3633 7.3635Z" stroke="#4126A8" stroke-linecap="round" stroke-linejoin="round"/>
<path d="M10 8C10 7.46957 9.78929 6.96086 9.41421 6.58579C9.03914 6.21071 8.53043 6 8 6C7.46957 6 6.96086 6.21071 6.58579 6.58579C6.21071 6.96086 6 7.46957 6 8C6 8.53043 6.21071 9.03914 6.58579 9.41421C6.96086 9.78929 7.46957 10 8 10C8.53043 10 9.03914 9.78929 9.41421 9.41421C9.78929 9.03914 10 8.53043 10 8Z" stroke="#4126A8" stroke-linecap="round" stroke-linejoin="round"/>
</svg>
